<?xml version="1.0" encoding="UTF-8"?>
<svg xmlns="http://www.w3.org/2000/svg" viewBox="0 0 409 861" width="409" height="861" id="hp65-body">
<g id="frame-assembly" fill-rule="evenodd">
<path id="chassis-gutter" fill="#61645A" d="M3,3H406V858H3ZM20,20H389V841H20Z"/>
<path id="outer-white-frame" fill="#4B5053" d="M0,0H409V861H0ZM3,3H406V858H3Z"/>
<path id="inner-white-frame" fill="#4B5053" d="M20,20H389V841H20ZM23,24H385V837H23Z"/>
</g>
<g id="faceplate-surface">
<g id="display-bezel"><rect id="burgundy-cap-top" x="20" y="24" width="369" height="4" fill="#443138"/><rect id="lcd-window" x="20" y="28" width="369" height="65" fill="#000000"/><rect id="burgundy-cap-bottom" x="20" y="93" width="369" height="24" fill="#443138"/></g>
<g id="control-strip"><rect id="white-rule-top" x="20" y="117" width="369" height="4" fill="#B8C0CD"/><rect id="face-above-switch" x="20" y="121" width="369" height="29" fill="#4B5053"/><rect id="dark-rule-above-switch" x="20" y="150" width="369" height="4" fill="#1C2025"/><rect id="card-slot-panel" x="20" y="154" width="369" height="64" fill="#4C4E50"/><rect id="dark-rule-above-keypad" x="20" y="218" width="369" height="4" fill="#1C2025"/></g>
<g id="keypad-panel"><rect id="keypad-panel" x="20" y="222" width="369" height="587" fill="#4B5053"/></g>
<g id="brand-plate"><rect id="brand-plate-fill" x="20" y="809" width="369" height="28" fill="#3C3E41"/></g>
</g>
</svg>
