<?xml version="1.0" encoding="UTF-8"?>
<!DOCTYPE svg PUBLIC "-//W3C//DTD SVG 1.1//EN" "http://www.w3.org/Graphics/SVG/1.1/DTD/svg11.dtd">
<!-- Creator: CorelDRAW 2026 -->
<svg xmlns="http://www.w3.org/2000/svg" xml:space="preserve" width="210mm" height="297mm" version="1.1" style="shape-rendering:geometricPrecision; text-rendering:geometricPrecision; image-rendering:optimizeQuality; fill-rule:evenodd; clip-rule:evenodd"
viewBox="0 0 21000 29700"
 xmlns:xlink="http://www.w3.org/1999/xlink"
 xmlns:xodm="http://www.corel.com/coreldraw/odm/2003">
 <defs>
  <style type="text/css">
   <![CDATA[
    .fil0 {fill:#005699}
    .fil1 {fill:#4C4E50}
   ]]>
  </style>
 </defs>
 <g id="Katman_x0020_1">
  <metadata id="CorelCorpID_0Corel-Layer"/>
  <g id="_2608880486608">
   <path class="fil0" d="M5352.9 1237.2c306.75,0 580.91,44.11 855.31,150.5 133.11,51.61 222.19,97.43 328.55,174.37 220.27,159.32 260.14,163.67 412.67,354.92 43.8,54.92 74.3,94.02 117.99,146.71 71.19,85.85 157.73,213.07 206.88,322.5 306.76,683.05 315.01,1343.98 -24.08,2018.83 -101.35,201.7 -315.41,499.01 -486.75,624.95 -373.66,274.64 -456.18,317.19 -903.34,446.58 -83.3,24.1 -150.3,18.07 -256.22,34.94 -123.67,19.7 -139.13,-35.31 -224.54,331.3l3149.81 0c214.88,0.14 324,31.77 462.83,-66.54 81,-57.36 198.89,-210.6 198.89,-330.49l0 -4076.23c0,-261.66 -242.89,-476.44 -502.91,-476.44l-3149.81 0c-99.29,0 -166.42,263.12 -185.28,344.1z"/>
   <path class="fil1" d="M1170.8 1501.89l0 3811.53c0,254.11 155.21,507.58 370.26,529.68l2753.08 -0.3c47.72,-204.82 110.08,-287.19 132.34,-370.57 -423.13,-203.03 -187.15,41.94 -866.28,-457.16 -98.61,-72.47 -340.15,-364.23 -395.85,-477.63 -292.91,-596.35 -326,-658.12 -326,-1341.54 0,-520.58 239.7,-968.04 544.28,-1361.48 314.98,-406.89 788.34,-527.73 847.2,-582.12 62.47,-57.72 121.99,-265.93 143.72,-359.2 -277.22,0 -2687.21,-27.33 -2837.53,21.12 -265.55,85.58 -365.22,310.44 -365.22,587.67z"/>
   <path class="fil1" d="M5961.68 4095.85l-238.22 0c30.12,-129.28 75.99,-230.23 124.93,-351.52l255.54 -723.81c25.72,-72.12 45.6,-118.91 64.63,-173.59 58.68,-168.52 0.68,-153.94 269.57,-153.94 -1.97,88.29 -389.97,1222.63 -476.45,1402.86zm-1402.85 1746.95l555.85 0c12.07,-145.03 286.67,-838.71 360.74,-1095.05 43.13,-149.27 110.66,-225.51 142.17,-360.74 1062.7,0 686.51,74.43 1084.78,-820.99l291.61 -899.5c0,-299.34 -352.02,-265.32 -476.36,-264.77 -255.81,1.12 -511.86,0.08 -767.69,0.08 -9.79,117.7 -503.52,1439.95 -592.16,1710.64 -31.33,95.7 -44.65,125.05 -82.63,208.53l-221.5 651.98c-81.47,224.74 -277.32,659.59 -294.81,869.82z"/>
   <path class="fil1" d="M3420.66 4334.07l555.85 0 582.32 -1641.08 238.22 0c-17.5,75.13 -35.06,123.67 -64.4,200.29l-491.45 1440.79 555.85 0c4.05,-181.64 238.73,-678 300.68,-890.43 97.46,-334.17 314.09,-692.78 206.69,-886.21 -114.88,-206.93 -339.58,-155.6 -639.72,-155.6l529.38 -1508.73 -555.84 0c-16.96,72.8 -40.46,146.63 -69.16,222 -35.09,92.12 -56.08,114.28 -86.74,204.42l-303.83 860.81c-31.18,92.49 -48.6,120.4 -80.18,210.98l-677.67 1942.76z"/>
  </g>
 </g>
</svg>
