<?xml version="1.0" encoding="UTF-8"?>
<svg xmlns="http://www.w3.org/2000/svg" viewBox="0 0 888 562" width="888" height="562" id="hp-logo-badge">
<g id="hp-logo">
<path id="logo-frame" fill="#FFD700" fill-rule="evenodd" d="M61,0H826A61,61 0 0 1 887,61V500A61,61 0 0 1 826,561H61A61,61 0 0 1 0,500V61A61,61 0 0 1 61,0ZM61,16H826A45,45 0 0 1 871,61V500A45,45 0 0 1 826,545H61A45,45 0 0 1 16,500V61A45,45 0 0 1 61,16Z"/>
<path id="logo-fill" fill="#FFFFFF" d="M61,16H826A45,45 0 0 1 871,61V500A45,45 0 0 1 826,545H61A45,45 0 0 1 16,500V61A45,45 0 0 1 61,16Z"/>
<g id="logo-art" transform="translate(16,16)">
<g id="hp-mark" fill="#1C2025" transform="translate(139.8973,-23.1364) scale(11.523207)">
<path d="M25.205078,2.0078125L20.150391,16L23.394531,16C25.514531,16,26.657641,17.631953,25.931641,19.626953L20.492188,34.001953L16.574219,34L22.150391,19L18.964844,19L13.388672,34L9.1503906,34L20.798828,2.3945312C20.327828,2.4815313,19.860391,2.5793125,19.400391,2.6953125C9.4163906,5.2023125,2.0019531,14.250953,2.0019531,25.001953C2.0019531,35.382953,8.9149062,44.174391,18.378906,47.025391C18.699906,47.122391,19.024562,47.215828,19.351562,47.298828L20.042969,45.386719L24.068359,34.257812L24.070312,34.257812L30.589844,16L38.392578,16C40.514578,16,41.656641,17.631953,40.931641,19.626953L36.183594,32.314453C35.845594,33.241453,34.762391,34,33.775391,34L28.150391,34L23.826172,45.941406L23.111328,47.917969C23.403328,47.941969,23.695234,47.964562,23.990234,47.976562C24.326234,47.991563,24.662953,48.001953,25.001953,48.001953C37.683953,48.001953,48.001953,37.684953,48.001953,25.001953C48.000953,12.609953,38.148187,2.4814375,25.867188,2.0234375C25.647188,2.0154375,25.426078,2.0098125,25.205078,2.0078125zM33.964844,19L29.455078,31L32.640625,31L37.150391,19L33.964844,19z"/>
</g>
</g>
</g>
</svg>
