<?xml version="1.0" encoding="UTF-8" standalone="no"?>
<svg xmlns="http://www.w3.org/2000/svg" viewBox="0 0 588 569">
  <path fill="#FFFFFF" d="M 10.5,177 L 31.2,178.6
    C 52.6,154.3 61,82.6 187.4,96.6
    C 182.8,404 48,436.4 56.4,499.4
    C 59.5,535.2 87.8,557.1 118.5,558.4
    C 215.2,555.1 210.9,424.6 241,95.9
    L 365.8,95.9
    C 359.2,211.8 341,327.6 339,441.2
    C 340.5,516.8 386.5,557.1 447,557.6
    C 546.5,560.9 577.9,444.8 577.9,395.3
    L 556.5,395.3
    C 554.4,436.1 534.8,465.5 492.9,467.3
    C 378.8,468.8 441.6,266.6 442.4,97.4
    L 577.9,98.2 L 577.2,11.6
    C 13.8,8.9 85.3,-2.1 10.5,177 Z"/>
</svg>
